<svg width="70" height="70" viewBox="0 0 70 70" fill="none" xmlns="http://www.w3.org/2000/svg">
<path fill-rule="evenodd" clip-rule="evenodd" d="M9.57345 48.7441C8.88927 48.8815 8.22791 49.1105 7.58935 49.4311V22.4335C7.58935 21.2886 7.98845 20.3154 8.78665 19.5139C9.58485 18.7125 10.5541 18.3117 11.6944 18.3117H13.0627V48.538H11.6944C10.9646 48.538 10.2576 48.6067 9.57345 48.7441ZM37.214 62.2772H11.6944C10.5085 62.2772 9.52783 61.888 8.75244 61.1094C7.97704 60.3308 7.58935 59.3462 7.58935 58.1555C7.58935 57.0105 7.97704 56.0373 8.75244 55.2359C9.52783 54.4344 10.5085 54.0337 11.6944 54.0337H37.214C36.8947 54.6749 36.6667 55.3389 36.5298 56.0259C36.393 56.7128 36.3246 57.4227 36.3246 58.1555C36.3246 58.934 36.4044 59.6553 36.5641 60.3194C36.7237 60.9835 36.9403 61.6361 37.214 62.2772Z" fill="#1C1B1F"/>
<path d="M11.6944 62.2772H37.214C36.9403 61.6361 36.7237 60.9835 36.5641 60.3194C36.4044 59.6553 36.3246 58.934 36.3246 58.1555C36.3246 57.4227 36.393 56.7128 36.5298 56.0259C36.6667 55.3389 36.8947 54.6749 37.214 54.0337H11.6944C10.5085 54.0337 9.52783 54.4344 8.75244 55.2359C7.97704 56.0373 7.58935 57.0105 7.58935 58.1555C7.58935 59.3462 7.97704 60.3308 8.75244 61.1094C9.52783 61.888 10.5085 62.2772 11.6944 62.2772Z" fill="#F5F5F5"/>
<path d="M36.7734 39.2817C31.6258 38.5375 27.5271 36.1248 24.4771 32.0438C21.449 27.9921 20.2909 23.4147 21.0028 18.3117H18.5361V48.538H40.4296V39.4475C39.2361 39.5168 38.0173 39.4616 36.7734 39.2817Z" fill="#D08147"/>
<path d="M7.58935 49.4311C8.22791 49.1105 8.88927 48.8815 9.57345 48.7441C10.2576 48.6067 10.9646 48.538 11.6944 48.538H13.0627V18.3117H11.6944C10.5541 18.3117 9.58485 18.7125 8.78665 19.5139C7.98845 20.3154 7.58935 21.2886 7.58935 22.4335V49.4311Z" fill="#9A452A"/>
<path fill-rule="evenodd" clip-rule="evenodd" d="M48.0733 37.155L63.3434 57.5872L67.8839 54.1938L52.6138 33.7616C53.9521 32.5087 55.0849 31.0092 56.0124 29.263C56.9398 27.5168 57.5538 25.6048 57.8542 23.5269C58.5985 18.3793 57.4456 13.765 54.3956 9.68399C51.3457 5.60296 47.2469 3.19031 42.0994 2.44604C36.9518 1.70177 32.3375 2.85463 28.2565 5.90461C25.7172 7.80237 23.8238 10.1062 22.5764 12.816H11.6944C9.04891 12.816 6.79114 13.7549 4.92107 15.6326C3.051 17.5103 2.11597 19.7772 2.11597 22.4335V58.1555C2.11597 60.8117 3.051 63.0787 4.92107 64.9564C6.79114 66.8341 9.04891 67.7729 11.6944 67.7729H45.903V62.2772C44.7627 62.2772 43.7935 61.8765 42.9953 61.0751C42.1971 60.2736 41.798 59.3004 41.798 58.1555C41.798 57.0105 42.1971 56.0373 42.9953 55.2359C43.7935 54.4344 44.7627 54.0337 45.903 54.0337V38.2178C44.9241 38.6101 43.8886 38.9175 42.7963 39.1401C42.0187 39.2986 41.2298 39.4011 40.4296 39.4475V48.538H18.5361V18.3117H21.0028C20.2909 23.4147 21.449 27.9921 24.4771 32.0438C27.5271 36.1248 31.6258 38.5375 36.7734 39.2817C38.0173 39.4616 39.2361 39.5168 40.4296 39.4475C41.2298 39.4011 42.0187 39.2986 42.7963 39.1401C43.8886 38.9175 44.9241 38.6101 45.903 38.2178C46.6604 37.9143 47.3838 37.56 48.0733 37.155ZM52.1872 22.7075C51.6751 26.2494 50.0001 29.0807 47.1623 31.2016C46.75 31.5098 46.3302 31.7901 45.903 32.0427C44.1971 33.0513 42.3726 33.6167 40.4296 33.7388C39.5105 33.7966 38.5649 33.7553 37.5928 33.6147C34.0509 33.1026 31.2195 31.4276 29.0987 28.5898C26.9778 25.752 26.1735 22.5622 26.6856 19.0203C26.7202 18.7808 26.7601 18.5447 26.8054 18.3117C27.2122 16.2173 28.0486 14.3855 29.3146 12.816C29.9907 11.9779 30.7893 11.2146 31.7104 10.5262C34.5482 8.40532 37.7381 7.60096 41.28 8.11307C44.8219 8.62518 47.6532 10.3001 49.7741 13.1379C51.8949 15.9757 52.6993 19.1656 52.1872 22.7075ZM9.57345 48.7441C8.88927 48.8815 8.22791 49.1105 7.58935 49.4311V22.4335C7.58935 21.2886 7.98845 20.3154 8.78665 19.5139C9.58485 18.7125 10.5541 18.3117 11.6944 18.3117H13.0627V48.538H11.6944C10.9646 48.538 10.2576 48.6067 9.57345 48.7441ZM37.214 62.2772H11.6944C10.5085 62.2772 9.52783 61.888 8.75244 61.1094C7.97704 60.3308 7.58935 59.3462 7.58935 58.1555C7.58935 57.0105 7.97704 56.0373 8.75244 55.2359C9.52783 54.4344 10.5085 54.0337 11.6944 54.0337H37.214C36.8947 54.6749 36.6667 55.3389 36.5298 56.0259C36.393 56.7128 36.3246 57.4227 36.3246 58.1555C36.3246 58.934 36.4044 59.6553 36.5641 60.3194C36.7237 60.9835 36.9403 61.6361 37.214 62.2772Z" fill="#1C1B1F"/>
<path d="M47.1623 31.2016C50.0001 29.0807 51.6751 26.2494 52.1872 22.7075C52.6993 19.1656 51.8949 15.9757 49.7741 13.1379C47.6532 10.3001 44.8219 8.62518 41.28 8.11307C37.7381 7.60096 34.5482 8.40532 31.7104 10.5262C30.7893 11.2146 29.9907 11.9779 29.3146 12.816C28.0486 14.3855 27.2122 16.2173 26.8054 18.3117C26.7601 18.5447 26.7202 18.7808 26.6856 19.0203C26.1735 22.5622 26.9778 25.752 29.0987 28.5898C31.2195 31.4276 34.0509 33.1026 37.5928 33.6147C38.5649 33.7553 39.5105 33.7966 40.4296 33.7388C42.3726 33.6167 44.1971 33.0513 45.903 32.0427C46.3302 31.7901 46.75 31.5098 47.1623 31.2016Z" fill="#EAFFFC" fill-opacity="0.26"/>
</svg>
